NotoSansDisplay-CondensedLightItalic.ufo
<glyph name="uni018E" format="2">
  <advance width="327"/>
  <unicode hex="018E"/>
  <anchor x="69" y="0" name="bottom"/>
  <anchor x="217" y="714" name="top"/>
  <outline>
    <contour>
      <point x="-35" y="0" type="line"/>
      <point x="186" y="0" type="line"/>
      <point x="338" y="714" type="line"/>
      <point x="117" y="714" type="line"/>
      <point x="112" y="689" type="line"/>
      <point x="307" y="689" type="line"/>
      <point x="244" y="389" type="line"/>
      <point x="62" y="389" type="line"/>
      <point x="56" y="364" type="line"/>
      <point x="238" y="364" type="line"/>
      <point x="165" y="25" type="line"/>
      <point x="-30" y="25" type="line"/>
    </contour>
  </outline>
</glyph>
<glyph name="florin" format="2">
  <advance width="291"/>
  <unicode hex="0192"/>
  <anchor x="54" y="0" name="bottom"/>
  <anchor x="367" y="765" name="top"/>
  <anchor x="419" y="765" name="topright"/>
  <outline>
    <contour>
      <point x="56" y="-15" type="curve" smooth="yes"/>
      <point x="116" y="-15"/>
      <point x="153" y="28"/>
      <point x="171" y="110" type="curve" smooth="yes"/>
      <point x="255" y="501" type="line"/>
      <point x="323" y="501" type="line"/>
      <point x="328" y="526" type="line"/>
      <point x="260" y="526" type="line"/>
      <point x="282" y="627" type="line" smooth="yes"/>
      <point x="298" y="699"/>
      <point x="315" y="740"/>
      <point x="361" y="740" type="curve" smooth="yes"/>
      <point x="375" y="740"/>
      <point x="390" y="736"/>
      <point x="400" y="731" type="curve"/>
      <point x="410" y="755" type="line"/>
      <point x="401" y="759"/>
      <point x="380" y="765"/>
      <point x="365" y="765" type="curve" smooth="yes"/>
      <point x="304" y="765"/>
      <point x="278" y="723"/>
      <point x="258" y="635" type="curve" smooth="yes"/>
      <point x="234" y="527" type="line"/>
      <point x="174" y="521" type="line"/>
      <point x="170" y="501" type="line"/>
      <point x="229" y="501" type="line"/>
      <point x="147" y="123" type="line" smooth="yes"/>
      <point x="130" y="44"/>
      <point x="107" y="10"/>
      <point x="53" y="10" type="curve" smooth="yes"/>
      <point x="11" y="10"/>
      <point x="-16" y="41"/>
      <point x="-16" y="93" type="curve" smooth="yes"/>
      <point x="-16" y="116"/>
      <point x="-12" y="138"/>
      <point x="-8" y="152" type="curve"/>
      <point x="-32" y="158" type="line"/>
      <point x="-37" y="140"/>
      <point x="-41" y="119"/>
      <point x="-41" y="93" type="curve" smooth="yes"/>
      <point x="-41" y="28"/>
      <point x="-8" y="-15"/>
    </contour>
  </outline>
</glyph>
<glyph name="tonos" format="2">
  <advance width="531"/>
  <unicode hex="0384"/>
  <anchor x="282" y="526" name="_top"/>
  <outline>
    <contour>
      <point x="259" y="606" type="line"/>
      <point x="272" y="606" type="line"/>
      <point x="295" y="637"/>
      <point x="369" y="750"/>
      <point x="384" y="780" type="curve"/>
      <point x="386" y="790" type="line"/>
      <point x="349" y="790" type="line"/>
      <point x="330" y="741"/>
      <point x="288" y="661"/>
      <point x="261" y="615" type="curve"/>
    </contour>
  </outline>
</glyph>
<glyph name="afii10193" format="2">
  <advance width="351"/>
  <unicode hex="045F"/>
  <anchor x="74" y="-231" name="bottom"/>
  <anchor x="223" y="526" name="top"/>
  <anchor x="367" y="526" name="topright"/>
  <outline>
    <contour>
      <point x="61" y="-231" type="line"/>
      <point x="86" y="-231" type="line"/>
      <point x="138" y="-36" type="line"/>
      <point x="132" y="-36" type="line"/>
      <point x="114" y="-50" type="line"/>
    </contour>
    <component base="u"/>
  </outline>
</glyph>
<glyph name="uni0489" format="2">
  <advance width="952"/>
  <unicode hex="0489"/>
  <outline>
    <contour>
      <point x="663" y="467" type="line"/>
      <point x="671" y="475"/>
      <point x="777" y="552"/>
      <point x="789" y="563" type="curve"/>
      <point x="783" y="568" type="line"/>
      <point x="741" y="559"/>
      <point x="669" y="529"/>
      <point x="639" y="506" type="curve"/>
      <point x="631" y="500" type="line"/>
    </contour>
    <contour>
      <point x="131" y="-29" type="line"/>
      <point x="172" y="-21"/>
      <point x="250" y="13"/>
      <point x="276" y="32" type="curve"/>
      <point x="283" y="39" type="line"/>
      <point x="251" y="72" type="line"/>
      <point x="205" y="32"/>
      <point x="167" y="4"/>
      <point x="121" y="-23" type="curve"/>
    </contour>
    <contour>
      <point x="160" y="231" type="curve"/>
      <point x="171" y="230" type="line"/>
      <point x="171" y="277" type="line"/>
      <point x="121" y="281"/>
      <point x="74" y="288"/>
      <point x="16" y="301" type="curve"/>
      <point x="16" y="293" type="line"/>
      <point x="44" y="272"/>
      <point x="126" y="236"/>
    </contour>
    <contour>
      <point x="423" y="-175" type="curve"/>
      <point x="433" y="-175" type="line"/>
      <point x="453" y="-147"/>
      <point x="489" y="-56"/>
      <point x="493" y="-28" type="curve"/>
      <point x="494" y="-17" type="line"/>
      <point x="449" y="-17" type="line"/>
      <point x="447" y="-39"/>
      <point x="440" y="-78"/>
    </contour>
    <contour>
      <point x="740" y="-66" type="curve"/>
      <point x="749" y="-60" type="line"/>
      <point x="744" y="-28"/>
      <point x="706" y="63"/>
      <point x="689" y="86" type="curve"/>
      <point x="682" y="94" type="line"/>
      <point x="650" y="62" type="line"/>
      <point x="688" y="17"/>
      <point x="704" y="-8"/>
    </contour>
    <contour>
      <point x="231" y="445" type="line"/>
      <point x="264" y="478" type="line"/>
      <point x="230" y="519"/>
      <point x="213" y="542"/>
      <point x="174" y="607" type="curve"/>
      <point x="165" y="600" type="line"/>
      <point x="168" y="572"/>
      <point x="205" y="479"/>
      <point x="224" y="453" type="curve"/>
    </contour>
    <contour>
      <point x="898" y="240" type="curve"/>
      <point x="898" y="249" type="line"/>
      <point x="876" y="265"/>
      <point x="784" y="303"/>
      <point x="754" y="308" type="curve"/>
      <point x="743" y="309" type="line"/>
      <point x="743" y="262" type="line"/>
      <point x="761" y="262"/>
      <point x="837" y="253"/>
    </contour>
    <contour>
      <point x="421" y="557" type="line"/>
      <point x="467" y="557" type="line"/>
      <point x="470" y="614"/>
      <point x="478" y="667"/>
      <point x="491" y="715" type="curve"/>
      <point x="482" y="715" type="line"/>
      <point x="462" y="687"/>
      <point x="427" y="601"/>
      <point x="422" y="568" type="curve"/>
    </contour>
  </outline>
</glyph>
<glyph name="uni1AB9" format="2">
  <unicode hex="1AB9"/>
  <anchor x="-35" y="90" name="_bottom"/>
  <anchor x="-105" y="-240" name="bottom"/>
  <outline>
    <contour>
      <point x="-178" y="-240" type="line"/>
      <point x="-147" y="-240" type="line"/>
      <point x="26" y="40" type="line"/>
      <point x="-5" y="40" type="line"/>
    </contour>
  </outline>
</glyph>
<glyph name="uni1ABA" format="2">
  <unicode hex="1ABA"/>
  <anchor x="-33" y="90" name="_bottom"/>
  <anchor x="-103" y="-240" name="bottom"/>
  <outline>
    <contour>
      <point x="-148" y="-204" type="line"/>
      <point x="-127" y="-204" type="line"/>
      <point x="6" y="40" type="line"/>
      <point x="-15" y="40" type="line"/>
    </contour>
    <contour>
      <point x="-143" y="-240" type="curve" smooth="yes"/>
      <point x="-126" y="-240"/>
      <point x="-116" y="-214"/>
      <point x="-116" y="-182" type="curve" smooth="yes"/>
      <point x="-116" y="-168"/>
      <point x="-121" y="-162"/>
      <point x="-129" y="-162" type="curve" smooth="yes"/>
      <point x="-145" y="-162"/>
      <point x="-158" y="-187"/>
      <point x="-158" y="-216" type="curve" smooth="yes"/>
      <point x="-158" y="-233"/>
      <point x="-153" y="-240"/>
    </contour>
  </outline>
</glyph>
<glyph name="uni1D24" format="2">
  <advance width="334"/>
  <unicode hex="1D24"/>
  <anchor x="124" y="0" name="bottom"/>
  <anchor x="279" y="760" name="top"/>
  <outline>
    <contour>
      <point x="124" y="-13" type="curve" smooth="yes"/>
      <point x="165" y="-13"/>
      <point x="197" y="1"/>
      <point x="220" y="19" type="curve"/>
      <point x="207" y="40" type="line"/>
      <point x="182" y="22"/>
      <point x="158" y="12"/>
      <point x="126" y="12" type="curve" smooth="yes"/>
      <point x="70" y="12"/>
      <point x="44" y="47"/>
      <point x="44" y="105" type="curve" smooth="yes"/>
      <point x="44" y="168"/>
      <point x="86" y="243"/>
      <point x="207" y="341" type="curve"/>
      <point x="219" y="398" type="line"/>
      <point x="336" y="496"/>
      <point x="386" y="578"/>
      <point x="386" y="650" type="curve" smooth="yes"/>
      <point x="386" y="724"/>
      <point x="346" y="765"/>
      <point x="279" y="765" type="curve" smooth="yes"/>
      <point x="239" y="765"/>
      <point x="205" y="751"/>
      <point x="183" y="733" type="curve"/>
      <point x="196" y="712" type="line"/>
      <point x="221" y="730"/>
      <point x="244" y="740"/>
      <point x="277" y="740" type="curve" smooth="yes"/>
      <point x="333" y="740"/>
      <point x="359" y="705"/>
      <point x="359" y="647" type="curve" smooth="yes"/>
      <point x="359" y="584"/>
      <point x="317" y="509"/>
      <point x="196" y="411" type="curve"/>
      <point x="184" y="354" type="line"/>
      <point x="67" y="256"/>
      <point x="17" y="174"/>
      <point x="17" y="102" type="curve" smooth="yes"/>
      <point x="17" y="28"/>
      <point x="57" y="-13"/>
    </contour>
  </outline>
</glyph>
<glyph name="uni1D2F" format="2">
  <advance width="239"/>
  <unicode hex="1D2F"/>
  <anchor x="136.85000000000002" y="287.0" name="bottom"/>
  <anchor x="235.65" y="715.4" name="top"/>
  <anchor x="342.25" y="715.4" name="topright"/>
  <outline>
    <contour>
      <point x="57" y="505" type="line"/>
      <point x="292" y="505" type="line"/>
      <point x="295" y="520" type="line"/>
      <point x="60" y="520" type="line"/>
    </contour>
    <component base="B" xScale="0.65" yScale="0.6" xOffset="53" yOffset="287"/>
  </outline>
</glyph>
<glyph name="LL-middleWelsh" format="2">
  <advance width="452"/>
  <unicode hex="1EFA"/>
  <anchor x="258" y="0" name="bottom"/>
  <anchor x="324" y="714" name="top"/>
  <anchor x="244" y="357" name="center"/>
  <anchor x="428" y="714" name="topright"/>
  <outline>
    <contour>
      <point x="2" y="0" type="line"/>
      <point x="28" y="0" type="line"/>
      <point x="180" y="714" type="line"/>
      <point x="154" y="714" type="line"/>
    </contour>
    <component base="L" xOffset="156"/>
  </outline>
</glyph>
<glyph name="ll-middleWelsh" format="2">
  <advance width="308"/>
  <unicode hex="1EFB"/>
  <anchor x="172" y="0" name="bottom"/>
  <anchor x="334" y="760" name="top"/>
  <anchor x="227" y="263" name="center_1"/>
  <anchor x="73" y="263" name="center_2"/>
  <anchor x="386" y="760" name="topright_1"/>
  <anchor x="232" y="760" name="topright_2"/>
  <outline>
    <contour>
      <point x="77" y="612" type="line"/>
      <point x="377" y="612" type="line"/>
      <point x="383" y="637" type="line"/>
      <point x="83" y="637" type="line"/>
    </contour>
    <component base="l" xOffset="154"/>
    <component base="l"/>
  </outline>
</glyph>
<glyph name="uni1FEF" format="2">
  <advance width="402"/>
  <unicode hex="1FEF"/>
  <anchor x="216" y="526" name="_top"/>
  <anchor x="266" y="763" name="top"/>
  <outline>
    <contour>
      <point x="260" y="604" type="curve"/>
      <point x="273" y="604" type="line"/>
      <point x="275" y="613" type="line"/>
      <point x="265" y="645"/>
      <point x="255" y="725"/>
      <point x="255" y="763" type="curve"/>
      <point x="227" y="763" type="line"/>
      <point x="225" y="753" type="line"/>
      <point x="228" y="716"/>
      <point x="246" y="638"/>
    </contour>
  </outline>
</glyph>
<glyph name="uni1FFD" format="2">
  <advance width="401"/>
  <unicode hex="1FFD"/>
  <anchor x="268" y="526" name="_top"/>
  <anchor x="318" y="763" name="top"/>
  <outline>
    <contour>
      <point x="246" y="604" type="line"/>
      <point x="262" y="604" type="line"/>
      <point x="291" y="639"/>
      <point x="335" y="711"/>
      <point x="355" y="753" type="curve"/>
      <point x="357" y="763" type="line"/>
      <point x="324" y="763" type="line"/>
      <point x="307" y="714"/>
      <point x="275" y="653"/>
      <point x="248" y="613" type="curve"/>
    </contour>
  </outline>
</glyph>
<glyph name="quoteleft" format="2">
  <advance width="116"/>
  <unicode hex="2018"/>
  <outline>
    <contour>
      <point x="75" y="495" type="line"/>
      <point x="99" y="495" type="line"/>
      <point x="116" y="564"/>
      <point x="154" y="652"/>
      <point x="192" y="714" type="curve"/>
      <point x="172" y="714" type="line"/>
      <point x="131" y="655"/>
      <point x="91" y="568"/>
      <point x="71" y="507" type="curve"/>
    </contour>
  </outline>
</glyph>
<glyph name="quotedblleft" format="2">
  <advance width="216"/>
  <unicode hex="201C"/>
  <outline>
    <contour>
      <point x="176" y="495" type="line"/>
      <point x="200" y="495" type="line"/>
      <point x="217" y="564"/>
      <point x="255" y="652"/>
      <point x="293" y="714" type="curve"/>
      <point x="273" y="714" type="line"/>
      <point x="232" y="655"/>
      <point x="192" y="568"/>
      <point x="172" y="507" type="curve"/>
    </contour>
    <contour>
      <point x="75" y="495" type="line"/>
      <point x="99" y="495" type="line"/>
      <point x="116" y="564"/>
      <point x="154" y="652"/>
      <point x="192" y="714" type="curve"/>
      <point x="172" y="714" type="line"/>
      <point x="131" y="655"/>
      <point x="91" y="568"/>
      <point x="71" y="507" type="curve"/>
    </contour>
  </outline>
</glyph>
<glyph name="tironiansignet" format="2">
  <advance width="589"/>
  <unicode hex="204A"/>
  <outline>
    <contour>
      <point x="488" y="0" type="line"/>
      <point x="488" y="527" type="line"/>
      <point x="31" y="527" type="line"/>
      <point x="31" y="502" type="line"/>
      <point x="462" y="502" type="line"/>
      <point x="462" y="0" type="line"/>
    </contour>
  </outline>
</glyph>
<glyph name="parenleftsuperior" format="2">
  <advance width="158"/>
  <unicode hex="207D"/>
  <outline>
    <contour>
      <point x="99" y="244" type="curve"/>
      <point x="122" y="244" type="line"/>
      <point x="105" y="284"/>
      <point x="96" y="343"/>
      <point x="96" y="392" type="curve" smooth="yes"/>
      <point x="96" y="516"/>
      <point x="145" y="650"/>
      <point x="232" y="761" type="curve"/>
      <point x="209" y="761" type="line"/>
      <point x="120" y="662"/>
      <point x="69" y="522"/>
      <point x="69" y="390" type="curve" smooth="yes"/>
      <point x="69" y="342"/>
      <point x="80" y="283"/>
    </contour>
  </outline>
</glyph>
<glyph name="parenrightsuperior" format="2">
  <advance width="158"/>
  <unicode hex="207E"/>
  <outline>
    <contour>
      <point x="29" y="244" type="curve"/>
      <point x="52" y="244" type="line"/>
      <point x="141" y="343"/>
      <point x="192" y="483"/>
      <point x="192" y="615" type="curve" smooth="yes"/>
      <point x="192" y="663"/>
      <point x="180" y="722"/>
      <point x="162" y="761" type="curve"/>
      <point x="139" y="761" type="line"/>
      <point x="155" y="721"/>
      <point x="165" y="662"/>
      <point x="165" y="613" type="curve" smooth="yes"/>
      <point x="165" y="489"/>
      <point x="115" y="355"/>
    </contour>
  </outline>
</glyph>
<glyph name="versicle" format="2">
  <advance width="338"/>
  <unicode hex="2123"/>
  <anchor x="102" y="0" name="bottom"/>
  <anchor x="246" y="714" name="top"/>
  <anchor x="415" y="714" name="topright"/>
  <outline>
    <contour>
      <point x="11" y="-145" type="line"/>
      <point x="37" y="-145" type="line"/>
      <point x="336" y="804" type="line"/>
      <point x="143" y="859" type="line"/>
      <point x="136" y="837" type="line"/>
      <point x="307" y="789" type="line"/>
    </contour>
    <component base="V"/>
  </outline>
</glyph>
<glyph name="uni2E44" format="2">
  <advance width="210"/>
  <unicode hex="2E44"/>
  <outline>
    <contour>
      <point x="125" y="596" type="line"/>
      <point x="268" y="727" type="line"/>
      <point x="248" y="745" type="line"/>
      <point x="113" y="608" type="line"/>
    </contour>
    <contour>
      <point x="-8" y="-33" type="line"/>
      <point x="135" y="98" type="line"/>
      <point x="115" y="116" type="line"/>
      <point x="-20" y="-21" type="line"/>
    </contour>
  </outline>
</glyph>
<glyph name="uniA655" format="2">
  <advance width="500"/>
  <unicode hex="A655"/>
  <anchor x="121" y="0" name="bottom"/>
  <anchor x="177" y="263" name="center"/>
  <anchor x="233" y="526" name="top"/>
  <anchor x="389" y="526" name="topright"/>
  <outline>
    <contour>
      <point x="303" y="289" type="line"/>
      <point x="298" y="264" type="line"/>
      <point x="411" y="264" type="line"/>
      <point x="355" y="0" type="line"/>
      <point x="381" y="0" type="line"/>
      <point x="493" y="526" type="line"/>
      <point x="467" y="526" type="line"/>
      <point x="416" y="289" type="line"/>
    </contour>
    <component base="o"/>
  </outline>
</glyph>
<glyph name="uniA657" format="2">
  <advance width="395"/>
  <unicode hex="A657"/>
  <anchor x="162" y="0" name="bottom"/>
  <anchor x="230" y="526" name="top"/>
  <outline>
    <contour>
      <point x="93" y="0" type="line"/>
      <point x="120" y="0" type="line"/>
      <point x="230" y="267" type="line"/>
      <point x="308" y="267" type="line"/>
      <point x="305" y="0" type="line"/>
      <point x="332" y="0" type="line"/>
      <point x="337" y="526" type="line"/>
      <point x="310" y="526" type="line"/>
    </contour>
    <contour>
      <point x="6" y="0" type="line"/>
      <point x="32" y="0" type="line"/>
      <point x="89" y="267" type="line"/>
      <point x="212" y="267" type="line"/>
      <point x="225" y="292" type="line"/>
      <point x="95" y="292" type="line"/>
      <point x="144" y="526" type="line"/>
      <point x="118" y="526" type="line"/>
    </contour>
    <contour>
      <point x="241" y="292" type="line"/>
      <point x="279" y="387" type="line" smooth="yes"/>
      <point x="290" y="414"/>
      <point x="302" y="443"/>
      <point x="310" y="468" type="curve"/>
      <point x="312" y="468" type="line"/>
      <point x="310" y="443"/>
      <point x="310" y="419"/>
      <point x="309" y="386" type="curve" smooth="yes"/>
      <point x="308" y="292" type="line"/>
    </contour>
  </outline>
</glyph>
<glyph name="uniA666" format="2">
  <advance width="675"/>
  <unicode hex="A666"/>
  <anchor x="232" y="0" name="bottom"/>
  <anchor x="364" y="714" name="top"/>
  <anchor x="652" y="714" name="topright"/>
  <outline>
    <contour>
      <point x="586" y="689" type="line"/>
      <point x="747" y="689" type="line"/>
      <point x="753" y="714" type="line"/>
      <point x="580" y="714" type="line"/>
    </contour>
    <component base="M"/>
  </outline>
</glyph>
<glyph name="uniA684" format="2">
  <advance width="646"/>
  <unicode hex="A684"/>
  <anchor x="74" y="0" name="bottom_1"/>
  <anchor x="429" y="0" name="bottom_2"/>
  <anchor x="224" y="714" name="top_1"/>
  <anchor x="581" y="714" name="top_2"/>
  <outline>
    <contour>
      <point x="187" y="358" type="line"/>
      <point x="415" y="358" type="line"/>
      <point x="421" y="383" type="line"/>
      <point x="193" y="383" type="line"/>
    </contour>
    <component base="afii10025"/>
    <component base="afii10028" xOffset="324"/>
  </outline>
</glyph>
<glyph name="uniA685" format="2">
  <advance width="490"/>
  <unicode hex="A685"/>
  <anchor x="54" y="0" name="bottom_1"/>
  <anchor x="289" y="0" name="bottom_2"/>
  <anchor x="146" y="526" name="top_1"/>
  <anchor x="401" y="526" name="top_2"/>
  <outline>
    <contour>
      <point x="132" y="267" type="line"/>
      <point x="288" y="267" type="line"/>
      <point x="293" y="292" type="line"/>
      <point x="137" y="292" type="line"/>
    </contour>
    <component base="afii10073"/>
    <component base="afii10076" xOffset="211"/>
  </outline>
</glyph>
<glyph name="uniA69E" format="2">
  <unicode hex="A69E"/>
  <outline>
    <contour>
      <point x="-40" y="131" type="line"/>
      <point x="-14" y="131" type="line"/>
      <point x="17" y="278" type="line"/>
      <point x="113" y="280"/>
      <point x="153" y="402"/>
      <point x="153" y="497" type="curve" smooth="yes"/>
      <point x="153" y="567"/>
      <point x="124" y="601"/>
      <point x="85" y="606" type="curve"/>
      <point x="115" y="747" type="line"/>
      <point x="89" y="747" type="line"/>
      <point x="59" y="605" type="line"/>
      <point x="-23" y="604"/>
      <point x="-75" y="505"/>
      <point x="-75" y="391" type="curve" smooth="yes"/>
      <point x="-75" y="322"/>
      <point x="-49" y="284"/>
      <point x="-9" y="278" type="curve"/>
    </contour>
    <contour>
      <point x="-3" y="304" type="line"/>
      <point x="-24" y="306"/>
      <point x="-48" y="327"/>
      <point x="-48" y="393" type="curve" smooth="yes"/>
      <point x="-48" y="470"/>
      <point x="-13" y="578"/>
      <point x="53" y="580" type="curve"/>
    </contour>
    <contour>
      <point x="23" y="304" type="curve"/>
      <point x="79" y="580" type="line"/>
      <point x="105" y="578"/>
      <point x="126" y="552"/>
      <point x="126" y="493" type="curve" smooth="yes"/>
      <point x="126" y="425"/>
      <point x="96" y="306"/>
    </contour>
  </outline>
</glyph>
<glyph name="uniA734" format="2">
  <advance width="629"/>
  <unicode hex="A734"/>
  <anchor x="357" y="0" name="bottom"/>
  <anchor x="433" y="357" name="center"/>
  <anchor x="499" y="714" name="top"/>
  <anchor x="707" y="714" name="topright"/>
  <outline>
    <contour>
      <point x="-68" y="0" type="line"/>
      <point x="-40" y="0" type="line"/>
      <point x="77" y="284" type="line"/>
      <point x="255" y="284" type="line"/>
      <point x="259" y="717" type="line"/>
      <point x="226" y="717" type="line"/>
    </contour>
    <contour>
      <point x="86" y="309" type="line"/>
      <point x="205" y="599" type="line" smooth="yes"/>
      <point x="218" y="631"/>
      <point x="227" y="655"/>
      <point x="233" y="673" type="curve"/>
      <point x="235" y="673" type="line"/>
      <point x="234" y="655"/>
      <point x="233" y="629"/>
      <point x="233" y="601" type="curve" smooth="yes"/>
      <point x="231" y="309" type="line"/>
    </contour>
    <component base="O" xOffset="194"/>
  </outline>
</glyph>
<glyph name="uniA748" format="2">
  <advance width="296"/>
  <unicode hex="A748"/>
  <anchor x="102" y="0" name="bottom"/>
  <anchor x="88" y="357" name="center"/>
  <anchor x="168" y="714" name="top"/>
  <anchor x="272" y="714" name="topright"/>
  <outline>
    <contour>
      <point x="72" y="593" type="line"/>
      <point x="257" y="593" type="line"/>
      <point x="262" y="618" type="line"/>
      <point x="76" y="618" type="line"/>
    </contour>
    <component base="L"/>
  </outline>
</glyph>
<glyph name="uniA749" format="2">
  <advance width="154"/>
  <unicode hex="A749"/>
  <anchor x="17" y="0" name="bottom"/>
  <anchor x="73" y="263" name="center"/>
  <anchor x="179" y="760" name="top"/>
  <anchor x="232" y="760" name="topright"/>
  <outline>
    <contour>
      <point x="79" y="637" type="line" smooth="yes"/>
      <point x="233" y="637" type="line" smooth="yes"/>
      <point x="238" y="662" type="line" smooth="yes"/>
      <point x="84" y="662" type="line" smooth="yes"/>
    </contour>
    <component base="l"/>
  </outline>
</glyph>
<glyph name="uniA74A" format="2">
  <advance width="435"/>
  <unicode hex="A74A"/>
  <anchor x="163" y="0" name="bottom"/>
  <anchor x="239" y="357" name="center"/>
  <anchor x="305" y="714" name="top"/>
  <anchor x="513" y="714" name="topright"/>
  <outline>
    <contour>
      <point x="-2" y="348" type="line"/>
      <point x="437" y="348" type="line" smooth="yes"/>
      <point x="443" y="373" type="line" smooth="yes"/>
      <point x="3" y="373" type="line"/>
    </contour>
    <component base="O"/>
  </outline>
</glyph>
<glyph name="uniA74B" format="2">
  <advance width="353"/>
  <unicode hex="A74B"/>
  <anchor x="121" y="0" name="bottom"/>
  <anchor x="177" y="263" name="center"/>
  <anchor x="233" y="526" name="top"/>
  <anchor x="389" y="526" name="topright"/>
  <outline>
    <contour>
      <point x="-2" y="256" type="line"/>
      <point x="361" y="256" type="line"/>
      <point x="366" y="281" type="line"/>
      <point x="3" y="281" type="line"/>
    </contour>
    <component base="o"/>
  </outline>
</glyph>
<glyph name="uniA752" format="2">
  <advance width="401"/>
  <unicode hex="A752"/>
  <anchor x="173" y="0" name="bottom"/>
  <anchor x="315" y="714" name="top"/>
  <anchor x="478" y="714" name="topright"/>
  <outline>
    <contour>
      <point x="-29" y="176" type="curve"/>
      <point x="-3" y="176" type="line"/>
      <point x="-3" y="179"/>
      <point x="-3" y="184"/>
      <point x="-3" y="188" type="curve" smooth="yes"/>
      <point x="-3" y="262"/>
      <point x="29" y="306"/>
      <point x="113" y="306" type="curve" smooth="yes"/>
      <point x="136" y="306" type="line"/>
      <point x="141" y="331" type="line"/>
      <point x="113" y="331" type="line" smooth="yes"/>
      <point x="17" y="331"/>
      <point x="-29" y="281"/>
      <point x="-29" y="190" type="curve" smooth="yes"/>
      <point x="-29" y="186"/>
      <point x="-29" y="179"/>
    </contour>
    <component base="P" xOffset="55"/>
  </outline>
</glyph>
<glyph name="uniA759" format="2">
  <advance width="500"/>
  <unicode hex="A759"/>
  <anchor x="189" y="-234" name="bottom"/>
  <anchor x="242" y="526" name="top"/>
  <anchor x="380" y="526" name="topright"/>
  <outline>
    <contour>
      <point x="45" y="-236" type="line"/>
      <point x="416" y="163" type="line" smooth="yes"/>
      <point x="468" y="219"/>
      <point x="511" y="260"/>
      <point x="511" y="329" type="curve" smooth="yes"/>
      <point x="511" y="397"/>
      <point x="467" y="434"/>
      <point x="395" y="435" type="curve"/>
      <point x="395" y="410" type="line"/>
      <point x="448" y="409"/>
      <point x="485" y="385"/>
      <point x="485" y="328" type="curve" smooth="yes"/>
      <point x="485" y="271"/>
      <point x="450" y="233"/>
      <point x="399" y="179" type="curve" smooth="yes"/>
      <point x="28" y="-220" type="line"/>
    </contour>
    <component base="q"/>
  </outline>
</glyph>
<glyph name="uniA764" format="2">
  <advance width="346"/>
  <unicode hex="A764"/>
  <outline>
    <contour>
      <point x="2" y="0" type="line"/>
      <point x="28" y="0" type="line"/>
      <point x="64" y="172" type="line"/>
      <point x="113" y="172" type="line" smooth="yes"/>
      <point x="254" y="172"/>
      <point x="334" y="282"/>
      <point x="334" y="435" type="curve" smooth="yes"/>
      <point x="334" y="527"/>
      <point x="287" y="580"/>
      <point x="190" y="580" type="curve" smooth="yes"/>
      <point x="151" y="580" type="line"/>
      <point x="180" y="714" type="line"/>
      <point x="154" y="714" type="line"/>
    </contour>
    <contour>
      <point x="70" y="197" type="line"/>
      <point x="146" y="555" type="line"/>
      <point x="187" y="555" type="line" smooth="yes"/>
      <point x="274" y="555"/>
      <point x="306" y="508"/>
      <point x="306" y="434" type="curve" smooth="yes"/>
      <point x="306" y="303"/>
      <point x="247" y="197"/>
      <point x="111" y="197" type="curve" smooth="yes"/>
    </contour>
    <contour>
      <point x="81" y="628" type="line"/>
      <point x="255" y="628" type="line"/>
      <point x="259" y="653" type="line"/>
      <point x="85" y="653" type="line"/>
    </contour>
  </outline>
</glyph>
<glyph name="uniA767" format="2">
  <advance width="367"/>
  <unicode hex="A767"/>
  <anchor x="81" y="-228" name="bottom"/>
  <anchor x="291" y="760" name="top"/>
  <outline>
    <contour>
      <point x="-82" y="-123" type="line" smooth="yes"/>
      <point x="118" y="-123" type="line" smooth="yes"/>
      <point x="123" y="-98" type="line" smooth="yes"/>
      <point x="-77" y="-98" type="line" smooth="yes"/>
    </contour>
    <component base="thorn"/>
  </outline>
</glyph>
<glyph name="uniA768" format="2">
  <advance width="325"/>
  <unicode hex="A768"/>
  <outline>
    <contour>
      <point x="-104" y="-239" type="line"/>
      <point x="36" y="-239" type="line"/>
      <point x="40" y="-220" type="line"/>
      <point x="-16" y="-217" type="line"/>
      <point x="31" y="5" type="line"/>
      <point x="405" y="714" type="line"/>
      <point x="377" y="714" type="line"/>
      <point x="101" y="186" type="line" smooth="yes"/>
      <point x="82" y="150"/>
      <point x="58" y="104"/>
      <point x="45" y="76" type="curve"/>
      <point x="43" y="76" type="line"/>
      <point x="52" y="111"/>
      <point x="63" y="156"/>
      <point x="71" y="191" type="curve" smooth="yes"/>
      <point x="175" y="691" type="line"/>
      <point x="233" y="695" type="line"/>
      <point x="237" y="714" type="line"/>
      <point x="97" y="714" type="line"/>
      <point x="93" y="695" type="line"/>
      <point x="150" y="691" type="line"/>
      <point x="-41" y="-217" type="line"/>
      <point x="-100" y="-220" type="line"/>
    </contour>
  </outline>
</glyph>
<glyph name="uniA771" format="2">
  <advance width="498"/>
  <unicode hex="A771"/>
  <anchor x="132" y="0" name="bottom"/>
  <anchor x="176" y="263" name="center"/>
  <anchor x="284" y="760" name="top"/>
  <anchor x="429" y="760" name="topright"/>
  <outline>
    <contour>
      <point x="221" y="-157" type="line"/>
      <point x="250" y="-157" type="line"/>
      <point x="476" y="185" type="line"/>
      <point x="447" y="185" type="line"/>
    </contour>
    <contour>
      <point x="245" y="0" type="line"/>
      <point x="431" y="0" type="line"/>
      <point x="436" y="25" type="line"/>
      <point x="250" y="25" type="line"/>
    </contour>
    <component base="d"/>
  </outline>
</glyph>
<glyph name="uniA791" format="2">
  <advance width="357"/>
  <unicode hex="A791"/>
  <anchor x="119" y="0" name="bottom"/>
  <anchor x="231" y="526" name="top"/>
  <anchor x="386" y="526" name="topright"/>
  <outline>
    <contour>
      <point x="195" y="-176" type="line"/>
      <point x="221" y="-176" type="line"/>
      <point x="263" y="24" type="line"/>
      <point x="226" y="24" type="line"/>
      <point x="232" y="0" type="line"/>
    </contour>
    <component base="n"/>
  </outline>
</glyph>
<glyph name="uniA799" format="2">
  <advance width="181"/>
  <unicode hex="A799"/>
  <anchor x="-92" y="-240" name="bottom"/>
  <anchor x="257" y="765" name="top"/>
  <anchor x="309" y="765" name="topright"/>
  <outline>
    <contour>
      <point x="14" y="304" type="line"/>
      <point x="175" y="304" type="line"/>
      <point x="181" y="329" type="line"/>
      <point x="19" y="329" type="line"/>
    </contour>
    <component base="f"/>
  </outline>
</glyph>
<glyph name="uniA7A3" format="2">
  <advance width="280"/>
  <unicode hex="A7A3"/>
  <anchor x="92" y="0" name="bottom"/>
  <anchor x="254" y="760" name="top"/>
  <anchor x="378" y="760" name="topright"/>
  <outline>
    <contour>
      <point x="-6" y="246" type="line"/>
      <point x="287" y="321" type="line"/>
      <point x="292" y="347" type="line"/>
      <point x="-1" y="272" type="line"/>
    </contour>
    <component base="k"/>
  </outline>
</glyph>
<glyph name="uniA7AE" format="2">
  <advance width="181"/>
  <unicode hex="A7AE"/>
  <outline>
    <contour>
      <point x="-57" y="0" type="line"/>
      <point x="102" y="0" type="line"/>
      <point x="106" y="19" type="line"/>
      <point x="41" y="22" type="line"/>
      <point x="143" y="503" type="line"/>
      <point x="210" y="507" type="line"/>
      <point x="214" y="526" type="line"/>
      <point x="55" y="526" type="line"/>
      <point x="51" y="507" type="line"/>
      <point x="118" y="503" type="line"/>
      <point x="16" y="22" type="line"/>
      <point x="-53" y="19" type="line"/>
    </contour>
  </outline>
</glyph>
<glyph name="uniA7AF" format="2">
  <advance width="347"/>
  <unicode hex="A7AF"/>
  <anchor x="116" y="0" name="bottom"/>
  <anchor x="175" y="280" name="center"/>
  <anchor x="234" y="559" name="top"/>
  <anchor x="387" y="559" name="topright"/>
  <outline>
    <contour>
      <point x="182" y="13" type="line"/>
      <point x="159" y="8" type="line"/>
      <point x="190" y="-130" type="line"/>
      <point x="216" y="-130" type="line"/>
    </contour>
    <component base="o.sc"/>
  </outline>
</glyph>
<glyph name="uniA7C7" format="2">
  <advance width="403"/>
  <unicode hex="A7C7"/>
  <anchor x="147" y="0" name="bottom"/>
  <anchor x="223" y="357" name="center"/>
  <anchor x="279" y="714" name="top"/>
  <anchor x="481" y="714" name="topright"/>
  <outline>
    <contour>
      <point x="89" y="355" type="line"/>
      <point x="359" y="355" type="line"/>
      <point x="365" y="380" type="line"/>
      <point x="95" y="380" type="line"/>
    </contour>
    <component base="D"/>
  </outline>
</glyph>
<glyph name="uniA7C9" format="2">
  <advance width="334"/>
  <unicode hex="A7C9"/>
  <anchor x="93" y="0" name="bottom"/>
  <anchor x="255" y="714" name="top"/>
  <anchor x="412" y="714" name="topright"/>
  <outline>
    <contour>
      <point x="24" y="355" type="line"/>
      <point x="324" y="355" type="line"/>
      <point x="330" y="380" type="line"/>
      <point x="30" y="380" type="line"/>
    </contour>
    <component base="S"/>
  </outline>
</glyph>
<glyph name="uniA7CA" format="2">
  <advance width="269"/>
  <unicode hex="A7CA"/>
  <anchor x="79" y="0" name="bottom"/>
  <anchor x="191" y="526" name="top"/>
  <anchor x="285" y="526" name="topright"/>
  <outline>
    <contour>
      <point x="8" y="263" type="line"/>
      <point x="257" y="263" type="line"/>
      <point x="263" y="288" type="line"/>
      <point x="14" y="288" type="line"/>
    </contour>
    <component base="s"/>
  </outline>
</glyph>
<glyph name="uniA7FB" format="2">
  <advance width="298"/>
  <unicode hex="A7FB"/>
  <outline>
    <contour>
      <point x="130" y="0" type="line"/>
      <point x="156" y="0" type="line"/>
      <point x="311" y="714" type="line"/>
      <point x="96" y="714" type="line"/>
      <point x="91" y="689" type="line"/>
      <point x="278" y="689" type="line"/>
      <point x="205" y="356" type="line"/>
      <point x="30" y="356" type="line"/>
      <point x="25" y="331" type="line"/>
      <point x="201" y="331" type="line"/>
    </contour>
  </outline>
</glyph>
<glyph name="uniAB60" format="2">
  <advance width="461"/>
  <unicode hex="AB60"/>
  <outline>
    <contour>
      <point x="270" y="-10" type="curve" smooth="yes"/>
      <point x="368" y="-10"/>
      <point x="411" y="92"/>
      <point x="411" y="170" type="curve" smooth="yes"/>
      <point x="411" y="239"/>
      <point x="376" y="283"/>
      <point x="303" y="283" type="curve" smooth="yes"/>
      <point x="276" y="283"/>
      <point x="250" y="278"/>
      <point x="236" y="274" type="curve"/>
      <point x="290" y="526" type="line"/>
      <point x="264" y="526" type="line"/>
      <point x="187" y="171" type="line" smooth="yes"/>
      <point x="182" y="149"/>
      <point x="176" y="115"/>
      <point x="176" y="86" type="curve" smooth="yes"/>
      <point x="176" y="27"/>
      <point x="206" y="-10"/>
    </contour>
    <contour>
      <point x="8" y="0" type="line"/>
      <point x="34" y="0" type="line"/>
      <point x="146" y="526" type="line"/>
      <point x="120" y="526" type="line"/>
    </contour>
    <contour>
      <point x="271" y="15" type="curve" smooth="yes"/>
      <point x="225" y="15"/>
      <point x="203" y="42"/>
      <point x="203" y="87" type="curve" smooth="yes"/>
      <point x="203" y="119"/>
      <point x="210" y="156"/>
      <point x="231" y="249" type="curve"/>
      <point x="250" y="254"/>
      <point x="274" y="258"/>
      <point x="299" y="258" type="curve" smooth="yes"/>
      <point x="355" y="258"/>
      <point x="384" y="231"/>
      <point x="384" y="169" type="curve" smooth="yes"/>
      <point x="384" y="109"/>
      <point x="355" y="15"/>
    </contour>
  </outline>
</glyph>
<glyph name="uniFE21" format="2">
  <unicode hex="FE21"/>
  <outline>
    <contour>
      <point x="324" y="587" type="curve"/>
      <point x="348" y="587" type="line"/>
      <point x="309" y="703"/>
      <point x="224" y="764"/>
      <point x="103" y="764" type="curve"/>
      <point x="103" y="737" type="line"/>
      <point x="211" y="737"/>
      <point x="293" y="674"/>
    </contour>
  </outline>
</glyph>
<glyph name="uniFE22" format="2">
  <unicode hex="FE22"/>
  <outline>
    <contour>
      <point x="-164" y="607" type="curve"/>
      <point x="-140" y="607" type="line"/>
      <point x="-136" y="644"/>
      <point x="-115" y="681"/>
      <point x="-52" y="681" type="curve" smooth="yes"/>
      <point x="-3" y="681"/>
      <point x="44" y="658"/>
      <point x="83" y="643" type="curve"/>
      <point x="83" y="670" type="line"/>
      <point x="41" y="687"/>
      <point x="-6" y="706"/>
      <point x="-49" y="706" type="curve" smooth="yes"/>
      <point x="-111" y="706"/>
      <point x="-154" y="677"/>
    </contour>
  </outline>
</glyph>
<glyph name="uniFE23" format="2">
  <unicode hex="FE23"/>
  <outline>
    <contour>
      <point x="215" y="607" type="curve" smooth="yes"/>
      <point x="277" y="607"/>
      <point x="320" y="636"/>
      <point x="330" y="706" type="curve"/>
      <point x="307" y="706" type="line"/>
      <point x="303" y="669"/>
      <point x="282" y="632"/>
      <point x="218" y="632" type="curve" smooth="yes"/>
      <point x="169" y="632"/>
      <point x="122" y="655"/>
      <point x="83" y="670" type="curve"/>
      <point x="83" y="643" type="line"/>
      <point x="125" y="626"/>
      <point x="172" y="607"/>
    </contour>
  </outline>
</glyph>
<glyph name="uni0268dotless" format="2">
  <advance width="153"/>
  <anchor x="18" y="0" name="bottom"/>
  <anchor x="131" y="526" name="top"/>
  <outline>
    <contour>
      <point x="4" y="265" type="line"/>
      <point x="147" y="265" type="line"/>
      <point x="153" y="290" type="line"/>
      <point x="9" y="290" type="line"/>
    </contour>
    <component base="idotless"/>
  </outline>
</glyph>
